<?xml version="1.0" encoding="UTF-8"?>
<svg width="368px" height="41px" viewBox="0 0 368 41" version="1.1" xmlns="http://www.w3.org/2000/svg" xmlns:xlink="http://www.w3.org/1999/xlink">
    <!-- Generator: Sketch 51 (57462) - http://www.bohemiancoding.com/sketch -->
    <title>なんででもだから</title>
    <desc>Created with Sketch.</desc>
    <defs></defs>
    <g id="Page-1" stroke="none" stroke-width="1" fill="none" fill-rule="evenodd">
        <g id="Desktop-HD" transform="translate(-96.000000, -84.000000)" fill="#000000">
            <path d="M100.36,114.464 L103.48,97.568 L96.568,95.936 L97.528,91.04 L104.536,91.664 L105.16,88.256 L110.488,88.688 L110.2,92.192 L115.576,92.72 L114.856,100.304 L109.576,99.056 L108.04,116.336 L100.36,114.464 Z M122.296,98.48 L123.784,94.208 L132.424,96.656 L130.648,102.944 L122.296,98.48 Z M133.288,109.424 L131.416,115.904 C131.416,115.904 127.768,114.272 124.024,113.264 L124.216,123.584 C111.304,124.304 105.496,114.512 112.312,108.992 C114.04,107.552 116.392,106.928 118.84,106.784 L119.128,100.352 L123.784,100.88 L123.88,107.024 C128.92,107.696 133.288,109.424 133.288,109.424 Z M116.536,113.36 C114.424,116.048 118.408,117.632 118.408,117.632 L118.6,112.496 C117.688,112.592 116.968,112.832 116.536,113.36 Z M171.736,111.296 C173.896,111.296 178.072,107.648 178.072,107.648 L181.72,114.368 C181.72,114.368 176.344,119.552 171.544,119.552 C165.592,119.552 165.88,111.872 162.568,111.872 C157.096,111.872 152.92,119.36 152.92,119.36 L146.824,115.76 L156.232,86.816 L162.136,88.832 L158.104,107.072 C158.104,107.072 160.984,104.96 164.248,104.96 C169.24,104.96 168.856,111.296 171.736,111.296 Z M222.376,86.432 L225.256,85.568 L227.32,92.768 L223.528,93.68 L222.376,86.432 Z M228.712,92.912 L227.56,85.664 L230.44,84.752 L232.504,91.952 L228.712,92.912 Z M213.832,122.816 C206.344,120.896 197.656,109.952 213.496,98.576 L196.216,93.584 L196.936,88.448 L222.088,93.44 L220.936,99.248 C216.712,101.168 205.816,111.776 219.064,116.384 L213.832,122.816 Z M270.376,86.432 L273.256,85.568 L275.32,92.768 L271.528,93.68 L270.376,86.432 Z M276.712,92.912 L275.56,85.664 L278.44,84.752 L280.504,91.952 L276.712,92.912 Z M261.832,122.816 C254.344,120.896 245.656,109.952 261.496,98.576 L244.216,93.584 L244.936,88.448 L270.088,93.44 L268.936,99.248 C264.712,101.168 253.816,111.776 267.064,116.384 L261.832,122.816 Z M295.24,101.408 L298.12,101.504 C298.072,100.352 298.024,99.2 298.024,97.952 L293.512,97.184 L293.896,91.424 L298.12,91.712 C298.168,90.128 298.216,88.496 298.312,86.816 L304.84,87.008 C304.84,87.008 304.696,89.12 304.648,92.144 L310.6,92.576 L310.6,100.064 L304.696,99.056 C304.744,99.968 304.792,100.88 304.84,101.744 L311.176,101.984 L311.176,108.896 L305.656,108.416 C306.28,111.488 307.288,113.744 308.872,114.08 C314.248,115.232 315.784,108.944 315.784,108.944 L321.928,112.16 C321.928,112.16 319.096,125.264 308.488,122.336 C302.584,120.704 299.752,116 298.648,107.84 L295.048,107.552 L295.24,101.408 Z M362.392,87.968 L365.272,87.104 L367.336,94.304 L363.544,95.216 L362.392,87.968 Z M370.456,86.288 L372.52,93.488 L368.728,94.448 L367.576,87.2 L370.456,86.288 Z M357.448,89.6 L356.584,97.76 L348.808,96.752 L352.648,122.816 L345.112,122.672 L342.952,95.936 L338.2,95.312 L338.2,89.264 L342.424,89.36 L342.04,85.376 L347.128,85.424 L347.704,89.456 L357.448,89.6 Z M371.032,100.16 L371.704,108.512 L354.328,105.344 L354.328,99.872 L371.032,100.16 Z M371.032,111.056 L371.272,119.456 L357.112,116.096 L357.448,109.952 L371.032,111.056 Z M391.96,119.264 L385,116.432 L389.848,101.936 C388.744,101.84 387.544,101.792 386.152,101.84 L386.488,96.08 C388.408,96.032 390.136,96.08 391.72,96.272 L393.736,90.272 L398.824,91.472 L397.288,97.568 C406.264,101.072 406.6,110.336 401.32,122.384 L394.36,119.072 C398.056,111.872 399.64,106.352 395.8,103.664 L391.96,119.264 Z M422.104,110.288 L415.768,115.376 L405.352,96.656 L409.624,94.16 L422.104,110.288 Z M447.928,88.976 L451.528,85.328 L463.192,91.952 L457.912,98.768 L447.928,88.976 Z M449.704,121.712 C449.704,121.712 458.488,113.408 440.056,112.208 L442.168,90.896 L448.312,91.472 L448.12,107.6 C448.12,107.6 468.376,109.328 455.992,124.448 L449.704,121.712 Z" id="なんででもだから"></path>
        </g>
    </g>
</svg>