<?xml version="1.0" encoding="UTF-8"?>
<svg width="88px" height="20px" viewBox="0 0 88 20" version="1.1" xmlns="http://www.w3.org/2000/svg" xmlns:xlink="http://www.w3.org/1999/xlink">
    <!-- Generator: Sketch 51 (57462) - http://www.bohemiancoding.com/sketch -->
    <title>人気記事</title>
    <desc>Created with Sketch.</desc>
    <defs></defs>
    <g id="Page-1" stroke="none" stroke-width="1" fill="none" fill-rule="evenodd">
        <g id="Desktop-HD" transform="translate(-83.000000, -408.000000)" fill="#000000">
            <path d="M98.416,425.728 L97.408,427.648 L91.072,420.424 L84.688,427.744 L83.68,425.848 L89.992,418.648 L89.992,408.232 L91.96,408.232 L91.96,418.36 L98.416,425.728 Z M115.696,417.448 L118.024,417.448 L114.328,421.912 L117.328,425.488 L116.392,427.216 L112.96,423.088 L109.216,427.552 L107.656,426.712 L111.424,422.2 L108.28,418.432 L110.632,418.432 L112.768,420.976 L115.696,417.448 Z M111.568,411.304 L109.024,414.352 L107.296,413.416 L111.64,408.232 L114.136,408.232 L113.032,409.528 L121.672,409.528 L121.672,411.304 L111.568,411.304 Z M119.32,414.064 L110.68,414.064 L110.68,412.408 L119.32,412.408 L119.32,414.064 Z M120.928,424.192 L122.368,425.92 L121.384,427.768 L119.08,424.984 L119.08,416.848 L108.256,416.848 L108.256,415.144 L120.928,415.144 L120.928,424.192 Z M140.8,425.656 L146.536,425.656 L146.536,427.528 L138.832,427.528 L138.832,415.096 L144.112,415.096 L144.112,410.512 L139.552,410.512 L138.544,408.64 L146.032,408.64 L146.032,416.968 L140.8,416.968 L140.8,425.656 Z M137.44,408.496 L137.44,410.152 L132.328,410.152 L132.328,408.496 L137.44,408.496 Z M131.464,412.744 L131.464,411.04 L138.304,411.04 L138.304,412.744 L131.464,412.744 Z M131.944,427.528 L131.944,418.792 L137.896,418.792 L137.896,427.528 L131.944,427.528 Z M133.816,420.496 L133.816,425.824 L136.024,425.824 L136.024,420.496 L133.816,420.496 Z M137.512,413.632 L137.512,415.288 L132.232,415.288 L132.232,413.632 L137.512,413.632 Z M132.232,417.88 L132.232,416.224 L137.512,416.224 L137.512,417.88 L132.232,417.88 Z M170.872,419.824 L170.872,421.528 L169.504,421.528 L169.504,424.36 L163.96,424.36 L163.96,427.648 L160.984,427.648 L160,425.776 L162.04,425.776 L162.04,424.36 L156.4,424.36 L156.4,422.608 L162.04,422.608 L162.04,421.528 L155.128,421.528 L155.128,419.824 L162.04,419.824 L162.04,418.768 L156.4,418.768 L156.4,416.992 L162.04,416.992 L162.04,416.2 L156.568,416.2 L156.568,411.616 L162.04,411.616 L162.04,410.848 L155.608,410.848 L155.608,409.12 L162.04,409.12 L162.04,408.112 L163.96,408.112 L163.96,409.12 L170.392,409.12 L170.392,410.848 L163.96,410.848 L163.96,411.616 L169.432,411.616 L169.432,416.2 L163.96,416.2 L163.96,416.992 L169.504,416.992 L169.504,419.824 L170.872,419.824 Z M167.56,413.272 L163.96,413.272 L163.96,414.568 L167.56,414.568 L167.56,413.272 Z M158.44,414.568 L162.04,414.568 L162.04,413.272 L158.44,413.272 L158.44,414.568 Z M163.96,418.768 L163.96,419.824 L167.536,419.824 L167.536,418.768 L163.96,418.768 Z M167.536,422.608 L167.536,421.528 L163.96,421.528 L163.96,422.608 L167.536,422.608 Z" id="人気記事"></path>
        </g>
    </g>
</svg>