<?xml version="1.0" encoding="UTF-8"?>
<svg width="88px" height="20px" viewBox="0 0 88 20" version="1.1" xmlns="http://www.w3.org/2000/svg" xmlns:xlink="http://www.w3.org/1999/xlink">
    <!-- Generator: Sketch 51 (57462) - http://www.bohemiancoding.com/sketch -->
    <title>最新記事</title>
    <desc>Created with Sketch.</desc>
    <defs></defs>
    <g id="Page-1" stroke="none" stroke-width="1" fill="none" fill-rule="evenodd">
        <g id="Desktop-HD" transform="translate(-569.000000, -299.000000)" fill="#000000">
            <path d="M582.832,299.328 L582.832,305.832 L571.096,305.832 L571.096,299.328 L582.832,299.328 Z M580.792,300.888 L573.112,300.888 L573.112,301.872 L580.792,301.872 L580.792,300.888 Z M573.112,304.296 L580.792,304.296 L580.792,303.312 L573.112,303.312 L573.112,304.296 Z M569.344,306.24 L584.656,306.24 L584.656,307.776 L576.808,307.776 L576.808,318.576 L575.032,318.576 L575.032,315.576 L570.376,318.384 L569.536,316.776 L571,315.888 L571,307.776 L569.344,307.776 L569.344,306.24 Z M575.032,311.4 L575.032,310.248 L572.704,310.248 L572.704,311.4 L575.032,311.4 Z M572.704,314.88 L575.032,313.464 L575.032,312.744 L572.704,312.744 L572.704,314.88 Z M575.032,308.904 L575.032,307.776 L572.704,307.776 L572.704,308.904 L575.032,308.904 Z M584.512,308.232 L581.704,312.96 L584.656,317.856 L583.096,318.696 L580.72,314.736 L578.368,318.696 L576.904,317.928 L579.424,313.704 L577.456,310.416 L579.328,310.416 L580.216,311.952 L581.464,309.888 L577.144,309.888 L577.144,308.232 L584.512,308.232 Z M608.656,305.28 L608.656,307.032 L607.048,307.032 L607.048,318.528 L605.176,318.528 L605.176,307.032 L603.04,307.032 L603.04,315.528 L601,318.288 L600.04,316.488 L601.168,314.952 L601.168,304.296 L604.984,299.16 L607,299.76 L603.04,305.112 L603.04,305.28 L608.656,305.28 Z M600.448,313.032 L599.512,314.808 L598.264,313.128 L598.264,318.528 L596.392,318.528 L596.392,314.592 L594.688,316.896 L593.632,314.904 L596.392,311.184 L596.392,309.816 L593.344,309.816 L593.344,308.064 L596.392,308.064 L596.392,306.72 L593.416,306.72 L593.416,305.016 L595.576,305.016 L593.992,302.88 L593.608,302.88 L593.608,301.176 L596.368,301.176 L596.368,299.232 L598.24,299.232 L598.24,301.176 L601.024,301.176 L601.024,302.88 L600.64,302.88 L599.032,305.016 L601.096,305.016 L601.096,306.72 L598.264,306.72 L598.264,308.064 L601.12,308.064 L601.12,309.816 L598.264,309.816 L598.264,310.08 L600.448,313.032 Z M596.008,302.88 L597.04,304.272 L595.672,305.016 L596.992,305.016 L598.576,302.88 L596.008,302.88 Z M626.8,316.656 L632.536,316.656 L632.536,318.528 L624.832,318.528 L624.832,306.096 L630.112,306.096 L630.112,301.512 L625.552,301.512 L624.544,299.64 L632.032,299.64 L632.032,307.968 L626.8,307.968 L626.8,316.656 Z M623.44,299.496 L623.44,301.152 L618.328,301.152 L618.328,299.496 L623.44,299.496 Z M617.464,303.744 L617.464,302.04 L624.304,302.04 L624.304,303.744 L617.464,303.744 Z M617.944,318.528 L617.944,309.792 L623.896,309.792 L623.896,318.528 L617.944,318.528 Z M619.816,311.496 L619.816,316.824 L622.024,316.824 L622.024,311.496 L619.816,311.496 Z M623.512,304.632 L623.512,306.288 L618.232,306.288 L618.232,304.632 L623.512,304.632 Z M618.232,308.88 L618.232,307.224 L623.512,307.224 L623.512,308.88 L618.232,308.88 Z M656.872,310.824 L656.872,312.528 L655.504,312.528 L655.504,315.36 L649.96,315.36 L649.96,318.648 L646.984,318.648 L646,316.776 L648.04,316.776 L648.04,315.36 L642.4,315.36 L642.4,313.608 L648.04,313.608 L648.04,312.528 L641.128,312.528 L641.128,310.824 L648.04,310.824 L648.04,309.768 L642.4,309.768 L642.4,307.992 L648.04,307.992 L648.04,307.2 L642.568,307.2 L642.568,302.616 L648.04,302.616 L648.04,301.848 L641.608,301.848 L641.608,300.12 L648.04,300.12 L648.04,299.112 L649.96,299.112 L649.96,300.12 L656.392,300.12 L656.392,301.848 L649.96,301.848 L649.96,302.616 L655.432,302.616 L655.432,307.2 L649.96,307.2 L649.96,307.992 L655.504,307.992 L655.504,310.824 L656.872,310.824 Z M653.56,304.272 L649.96,304.272 L649.96,305.568 L653.56,305.568 L653.56,304.272 Z M644.44,305.568 L648.04,305.568 L648.04,304.272 L644.44,304.272 L644.44,305.568 Z M649.96,309.768 L649.96,310.824 L653.536,310.824 L653.536,309.768 L649.96,309.768 Z M653.536,313.608 L653.536,312.528 L649.96,312.528 L649.96,313.608 L653.536,313.608 Z" id="最新記事"></path>
        </g>
    </g>
</svg>